<?xml version="1.0" standalone="no"?>
<!DOCTYPE svg PUBLIC "-//W3C//DTD SVG 20010904//EN"
 "http://www.w3.org/TR/2001/REC-SVG-20010904/DTD/svg10.dtd">
<svg version="1.0" xmlns="http://www.w3.org/2000/svg"
 width="700.000000pt" height="700.000000pt" viewBox="0 0 700.000000 700.000000"
 preserveAspectRatio="xMidYMid meet">
<metadata>
Created by potrace 1.11, written by Peter Selinger 2001-2013
</metadata>
<g transform="translate(0.000000,700.000000) scale(0.100000,-0.100000)"
fill="#000000" stroke="none">
<path d="M3359 4716 c-2 -2 -26 -7 -54 -11 -201 -26 -448 -140 -600 -274 -283
-252 -432 -572 -432 -930 -1 -410 201 -784 547 -1016 82 -55 119 -74 235 -125
57 -25 184 -57 270 -68 61 -8 285 -8 341 0 200 29 448 137 577 250 l38 33
-107 175 c-58 96 -115 188 -126 203 l-21 29 -41 -40 c-130 -126 -317 -193
-519 -187 -127 4 -196 22 -315 81 -369 185 -517 635 -328 1003 127 248 380
404 656 405 140 1 188 -9 315 -61 64 -27 130 -69 183 -118 19 -16 39 -33 45
-37 8 -4 56 67 134 195 l123 202 -28 26 c-34 32 -151 108 -218 142 -68 34
-238 92 -299 102 -27 5 -57 10 -65 13 -19 5 -306 13 -311 8z"/>
<path d="M5120 4709 c-19 -4 -48 -10 -65 -14 -16 -3 -73 -26 -125 -52 -79 -38
-108 -59 -180 -132 -71 -71 -94 -102 -133 -181 -78 -159 -75 -123 -76 -1117
l-1 -883 235 0 235 0 1 848 c0 466 3 860 5 877 12 70 64 138 133 172 58 28
155 24 212 -9 46 -27 88 -78 110 -133 8 -22 11 -262 12 -892 l0 -863 233 0
c129 0 234 3 235 8 1 4 2 396 3 872 2 817 3 867 20 900 32 61 87 110 146 129
8 2 42 4 76 4 105 0 200 -76 221 -175 5 -24 9 -424 9 -891 l-1 -847 235 0 236
0 -2 888 c-1 488 -4 898 -6 912 -52 287 -271 514 -556 575 -86 18 -257 13
-332 -10 -79 -24 -167 -68 -228 -115 l-53 -41 -37 29 c-91 71 -182 113 -301
138 -75 15 -196 17 -261 3z"/>
<path d="M870 4670 c-225 -43 -405 -152 -563 -341 -26 -31 -47 -59 -47 -61 0
-3 -18 -37 -40 -74 -42 -71 -80 -177 -101 -279 -10 -45 -13 -254 -14 -822 l-1
-763 232 0 c177 0 233 3 236 13 2 6 3 112 3 235 l-1 222 46 0 c75 1 864 1 881
1 15 -1 17 -23 17 -203 0 -112 1 -218 1 -235 l1 -33 235 0 235 0 -1 753 c-1
782 -2 812 -44 947 -55 178 -190 364 -345 477 -70 51 -211 122 -260 131 -3 0
-18 6 -35 12 -92 36 -304 45 -435 20z m255 -463 c88 -13 202 -74 266 -144 43
-47 70 -93 99 -169 22 -56 23 -75 26 -341 l3 -282 -472 2 -472 2 1 270 c0 293
6 332 63 434 64 116 204 211 336 228 22 3 41 6 43 8 3 2 61 -2 107 -8z"/>
</g>
</svg>
