<?xml version="1.0" encoding="UTF-8"?><!DOCTYPE svg PUBLIC "-//W3C//DTD SVG 1.1//EN" "http://www.w3.org/Graphics/SVG/1.1/DTD/svg11.dtd"><svg xmlns="http://www.w3.org/2000/svg" xmlns:xlink="http://www.w3.org/1999/xlink" version="1.1" id="Layer_1" x="0px" y="0px" width="140px" height="140px" viewBox="0 0 140 140" xml:space="preserve"><path fill="#FFF" d="M121.105 24.593c-18.459-18.73-40.744-4.787-51.102 6.5-10.361-11.287-32.646-25.23-51.107-6.5-24.373 24.732 1.566 49.965 1.566 49.965l49.393 49.701v.324l.148-.164.145.164v-.324l49.387-49.701s25.938-25.233 1.57-49.965z"/><path fill="#E9EEF4" d="M130.596 55.151c-1.348-5.113-4.25-10.451-9.49-15.771-18.459-18.729-40.744-4.783-51.102 6.504-10.361-11.287-32.647-25.233-51.108-6.504-5.242 5.32-8.146 10.66-9.492 15.773C12.24 66.56 20.463 74.558 20.463 74.558l49.393 49.701v.324l.148-.164.145.164v-.324l49.387-49.701c-.001 0 8.222-8 11.06-19.407z"/><path fill="#C7D5E2" d="M127.082 64.118c-1.521-2.521-3.477-5.063-5.977-7.602-18.459-18.729-40.744-4.783-51.102 6.504-10.361-11.287-32.646-25.232-51.107-6.504-2.502 2.539-4.457 5.082-5.979 7.604 3.416 6.405 7.545 10.438 7.545 10.438l49.393 49.701v.324l.148-.164.145.164v-.324l49.387-49.701s4.129-4.034 7.547-10.44z"/><path fill="#EA2828" d="M121.139 24.627H77.076a56.378 56.378 0 0 0-7.072 6.466L70 31.087v1.758h57.48c-1.564-2.722-3.642-5.473-6.341-8.218z"/><path fill="#EA2828" d="M85.969 19.085h28.15c-9.568-5.592-19.605-4.127-28.15 0z"/><path fill="#EA2828" d="M70 47.965h61.537a28.43 28.43 0 0 0-1.105-8.218H70v8.218z"/><path fill="#EA2828" d="M130.66 54.867H70v8.218h57.625c1.227-2.454 2.318-5.221 3.035-8.218z"/><path fill="#EA2828" d="M16.613 69.987c2.135 2.898 3.85 4.57 3.85 4.57l3.625 3.647h91.822l3.625-3.647s1.715-1.672 3.85-4.57H16.613z"/><path fill="#EA2828" d="M109.053 85.107H30.947l8.166 8.218h61.774z"/><path fill="#EA2828" d="M94.027 100.228H45.975l8.166 8.217h31.72z"/><path fill="#EA2828" d="M79.002 115.348H61l8.168 8.217h1.668z"/><path fill="#3D99F4" d="M18.896 24.593C4.805 38.893 7.531 53.359 12.34 63.021h57.664V31.093c-10.361-11.287-32.647-25.231-51.108-6.5z"/><path fill="#1281DD" d="M18.896 39.38c-5.24 5.318-8.145 10.656-9.49 15.768.012.048.023.096.037.145.164.646.342 1.285.537 1.909l.055.163c.201.634.416 1.256.646 1.863l.049.125a38.81 38.81 0 0 0 .773 1.883c.258.584.523 1.152.799 1.705.012.025.023.052.037.077v.003h57.664V45.884c-10.36-11.287-32.646-25.233-51.107-6.504z"/><path fill="#1264DB" d="M18.896 56.517a41.775 41.775 0 0 0-5.268 6.504h56.375c-10.36-11.288-32.646-25.233-51.107-6.504z"/><path fill="none" stroke="#33363A" stroke-width="3" stroke-linecap="round" stroke-linejoin="round" stroke-miterlimit="10" d="M121.105 24.593c-18.459-18.73-40.744-4.787-51.102 6.5-10.361-11.287-32.646-25.23-51.107-6.5-24.373 24.732 1.566 49.965 1.566 49.965l49.393 49.701v.324l.148-.164.145.164v-.324l49.387-49.701s25.938-25.233 1.57-49.965z"/><path fill="none" stroke="#33363A" stroke-width="3" stroke-linecap="round" stroke-linejoin="round" stroke-miterlimit="10" d="M18.896 24.593C4.805 38.893 7.531 53.359 12.34 63.021h57.664V31.093c-10.361-11.287-32.647-25.231-51.108-6.5z"/><metadata><rdf:RDF xmlns:rdf="http://www.w3.org/1999/02/22-rdf-syntax-ns#" xmlns:rdfs="http://www.w3.org/2000/01/rdf-schema#" xmlns:dc="http://purl.org/dc/elements/1.1/"><rdf:Description about="https://iconscout.com/legal#licenses" dc:title="world,signatures,america" dc:description="world,signatures,america" dc:publisher="Iconscout" dc:date="2018-01-30" dc:format="image/svg+xml" dc:language="en"><dc:creator><rdf:Bag><rdf:li>Roundicons.com</rdf:li></rdf:Bag></dc:creator></rdf:Description></rdf:RDF></metadata></svg>